<svg id="图层_1" data-name="图层 1" xmlns="http://www.w3.org/2000/svg" viewBox="0 0 512 512"><defs><style>.cls-1,.cls-2,.cls-3,.cls-7,.cls-8{fill:none;}.cls-1{stroke:#231815;stroke-width:10px;}.cls-1,.cls-2,.cls-3,.cls-6,.cls-7,.cls-8{stroke-miterlimit:10;}.cls-2,.cls-6{stroke:#036eb8;}.cls-2,.cls-3{stroke-width:34px;}.cls-3{stroke:#cb4593;}.cls-4,.cls-6{fill:#036eb8;}.cls-5{fill:#cb4593;}.cls-7{stroke:#c673ac;}.cls-7,.cls-8{stroke-width:20px;}.cls-8{stroke:#68c4ce;}</style></defs><title>画板 1</title><path class="cls-1" d="M89.83,21.33H490.67a0,0,0,0,1,0,0V422.17a68.5,68.5,0,0,1-68.5,68.5H21.33a0,0,0,0,1,0,0V89.83a68.5,68.5,0,0,1,68.5-68.5Z"/><polyline class="cls-2" points="18 378 18 495 135 495"/><polyline class="cls-3" points="495 135 495 18 378 18"/><path class="cls-4" d="M135,418a23.14,23.14,0,0,1,2.5.16l-4-.53a18.26,18.26,0,0,1,4.48,1.23l-3.58-1.51a20,20,0,0,1,4.1,2.44l-3-2.34a30.3,30.3,0,0,1,5.09,5.22l-2.35-3c3.87,5,6.71,10.69,10,16.07,4.27,7,9.45,13.74,16.63,17.9A34,34,0,0,0,180,458c5.56.36,10.83-1.13,15.82-3.4,7.43-3.39,12.9-10.17,17.25-16.84,3.87-6,6.92-12.44,11.27-18.08l-2.34,3a29.94,29.94,0,0,1,5.09-5.22l-3,2.34a19.74,19.74,0,0,1,4.1-2.44l-3.58,1.51a18.31,18.31,0,0,1,4.47-1.23l-4,.53a19.92,19.92,0,0,1,5,0l-4-.53a18.26,18.26,0,0,1,4.48,1.23L227,417.35a19.74,19.74,0,0,1,4.1,2.44l-3-2.34a30.67,30.67,0,0,1,5.09,5.22l-2.35-3c3.87,5,6.71,10.69,10,16.07,4.27,7,9.45,13.74,16.63,17.9A33.93,33.93,0,0,0,272.58,458c5.56.36,10.83-1.13,15.82-3.4,7.42-3.39,12.9-10.17,17.24-16.84,3.88-6,6.93-12.44,11.28-18.08l-2.34,3a30.24,30.24,0,0,1,5.08-5.22l-3,2.34a19.74,19.74,0,0,1,4.1-2.44l-3.58,1.51a18.31,18.31,0,0,1,4.47-1.23l-4,.53a19.92,19.92,0,0,1,5,0l-4-.53a18.26,18.26,0,0,1,4.48,1.23l-3.59-1.51a19.74,19.74,0,0,1,4.1,2.44l-3-2.34a30.67,30.67,0,0,1,5.09,5.22l-2.35-3c3.87,5,6.71,10.69,10,16.07,4.27,7,9.44,13.74,16.63,17.9A33.93,33.93,0,0,0,365.15,458c5.56.36,10.83-1.13,15.82-3.4,7.42-3.39,12.9-10.17,17.25-16.84,3.87-6,6.92-12.44,11.27-18.08l-2.34,3a29.94,29.94,0,0,1,5.09-5.22l-3,2.34a19.74,19.74,0,0,1,4.1-2.44l-3.58,1.51a18.26,18.26,0,0,1,4.48-1.23l-4,.53a19.92,19.92,0,0,1,5,0l-4-.53a18.26,18.26,0,0,1,4.48,1.23l-3.58-1.51a19.74,19.74,0,0,1,4.1,2.44l-3-2.34a30.3,30.3,0,0,1,5.09,5.22l-2.34-3c3.83,5,6.65,10.6,9.92,15.93,4.29,7,9.49,13.85,16.72,18A33.31,33.31,0,0,0,459,458a15.43,15.43,0,0,0,10.61-4.39A15.25,15.25,0,0,0,474,443c-.17-3.88-1.45-7.9-4.39-10.61A15.7,15.7,0,0,0,459,428a23.14,23.14,0,0,1-2.5-.16l4,.53a18.26,18.26,0,0,1-4.48-1.23l3.58,1.51a19.74,19.74,0,0,1-4.1-2.44l3,2.34a30.3,30.3,0,0,1-5.09-5.22l2.34,3c-3.86-5-6.7-10.69-10-16.07-4.28-7-9.45-13.74-16.64-17.9A33.93,33.93,0,0,0,414,388c-5.56-.36-10.83,1.13-15.82,3.4-7.43,3.39-12.9,10.17-17.25,16.84-3.87,6-6.92,12.44-11.27,18.08l2.34-3a30.3,30.3,0,0,1-5.09,5.22l3-2.34a19.74,19.74,0,0,1-4.1,2.44l3.58-1.51a18.26,18.26,0,0,1-4.48,1.23l4-.53a19.92,19.92,0,0,1-5,0l4,.53a18.26,18.26,0,0,1-4.48-1.23l3.58,1.51a20,20,0,0,1-4.1-2.44l3,2.34a30.3,30.3,0,0,1-5.09-5.22l2.35,3c-3.87-5-6.71-10.69-10-16.07-4.27-7-9.45-13.74-16.63-17.9A34,34,0,0,0,321.41,388c-5.56-.36-10.83,1.13-15.82,3.4-7.43,3.39-12.9,10.17-17.25,16.84-3.87,6-6.92,12.44-11.28,18.08l2.35-3a30.3,30.3,0,0,1-5.09,5.22l3-2.34a19.74,19.74,0,0,1-4.1,2.44l3.58-1.51a18.26,18.26,0,0,1-4.48,1.23l4-.53a19.92,19.92,0,0,1-5,0l4,.53a18.26,18.26,0,0,1-4.48-1.23l3.58,1.51a20,20,0,0,1-4.1-2.44l3,2.34a30.67,30.67,0,0,1-5.09-5.22l2.35,3c-3.87-5-6.71-10.69-10-16.07-4.27-7-9.45-13.74-16.63-17.9A33.93,33.93,0,0,0,228.84,388c-5.56-.36-10.83,1.13-15.82,3.4-7.43,3.39-12.9,10.17-17.25,16.84-3.87,6-6.92,12.44-11.27,18.08l2.34-3a30.24,30.24,0,0,1-5.08,5.22l3-2.34a19.74,19.74,0,0,1-4.1,2.44l3.59-1.51a18.38,18.38,0,0,1-4.48,1.23l4-.53a20,20,0,0,1-5,0l4,.53a18.38,18.38,0,0,1-4.48-1.23l3.59,1.51a19.74,19.74,0,0,1-4.1-2.44l3,2.34a30.24,30.24,0,0,1-5.08-5.22l2.34,3c-3.83-5-6.66-10.6-9.92-15.93-4.29-7-9.49-13.85-16.72-18A33.31,33.31,0,0,0,135,388a15.43,15.43,0,0,0-10.61,4.39A15.25,15.25,0,0,0,120,403c.17,3.88,1.45,7.9,4.39,10.61A15.7,15.7,0,0,0,135,418Z"/><path class="cls-4" d="M95.05,187.57c.36.8.72,1.61,1.06,2.42l-1.51-3.58A108.48,108.48,0,0,1,102.05,214l-.54-4a127,127,0,0,1-.17,33.23l.54-4a159.35,159.35,0,0,1-11.17,40.35L92.22,276c-2.75,6.49-5.49,12.78-7.06,19.68A112.15,112.15,0,0,0,82.5,316.6a127.91,127.91,0,0,0,4.75,38.23A176.28,176.28,0,0,0,93.54,373a11.22,11.22,0,0,0,2.68,5.1,11.34,11.34,0,0,0,4.21,3.86A15.3,15.3,0,0,0,112,383.46c3.63-1.17,7.13-3.42,9-6.89s3-7.89,1.51-11.56c-4.27-10.71-7.91-21.75-9.47-33.21l.54,4a109.53,109.53,0,0,1-.25-28.6l-.53,4a80.88,80.88,0,0,1,5.43-20.28l-1.52,3.58a232.88,232.88,0,0,0,9.06-23.77,152.25,152.25,0,0,0,4.78-21.31,156.64,156.64,0,0,0,2-25.39,138.89,138.89,0,0,0-2.7-25A122,122,0,0,0,121,172.43c-1.45-3.22-5.7-6-9-6.89a15.3,15.3,0,0,0-11.56,1.51c-3.2,2.06-6,5.14-6.89,9L93,180a14.91,14.91,0,0,0,2,7.57Z"/><path class="cls-4" d="M203.06,268.73l-4,4.46-10.92,12.14L172,303.21l-19.79,22-21.51,23.9L108.94,373.3,88.62,395.88l-17.1,19L59.16,428.61c-1.95,2.17-3.91,4.33-5.85,6.51l-.25.27A15.81,15.81,0,0,0,48.67,446a15.28,15.28,0,0,0,4.39,10.61c2.86,2.62,6.61,4.57,10.61,4.39,3.85-.17,7.94-1.43,10.6-4.39l4-4.46L89.22,440l16.09-17.88,19.78-22,21.51-23.9L168.39,352l20.32-22.57,17.11-19,12.35-13.73c2-2.17,3.91-4.33,5.85-6.5l.25-.28a15.82,15.82,0,0,0,4.4-10.61,15.25,15.25,0,0,0-4.4-10.6c-2.86-2.63-6.61-4.58-10.6-4.4s-7.95,1.44-10.61,4.4Z"/><path class="cls-5" d="M308.94,243.27l4-4.46,10.92-12.14L340,208.79l19.79-22,21.51-23.9,21.79-24.21,20.32-22.58,17.1-19,12.36-13.72c2-2.17,3.91-4.33,5.85-6.51l.25-.27A15.81,15.81,0,0,0,463.33,66a15.28,15.28,0,0,0-4.39-10.61c-2.86-2.62-6.61-4.57-10.61-4.39-3.85.17-7.94,1.43-10.6,4.39l-4,4.46L422.78,72,406.69,89.88l-19.78,22-21.51,23.9L343.61,160l-20.32,22.57-17.11,19-12.35,13.73c-1.95,2.17-3.91,4.33-5.85,6.5l-.25.28a15.82,15.82,0,0,0-4.4,10.61,15.25,15.25,0,0,0,4.4,10.6c2.86,2.63,6.61,4.58,10.6,4.4s7.95-1.44,10.61-4.4Z"/><circle class="cls-6" cx="75" cy="111" r="30"/><line class="cls-7" x1="277.33" y1="426.67" x2="192" y2="341.33"/><line class="cls-8" x1="320" y1="149.33" x2="234.67" y2="64"/><line class="cls-7" x1="405.33" y1="426.67" x2="256" y2="277.33"/><line class="cls-8" x1="256" y1="213.33" x2="106.67" y2="64"/></svg>